<svg xmlns="http://www.w3.org/2000/svg" viewBox="0 0 128 128" role="img" aria-label="DispatchLink logo">
  <defs>
    <linearGradient id="lemon" x1="28" y1="16" x2="96" y2="112" gradientUnits="userSpaceOnUse">
      <stop offset="0" stop-color="#fff071"/>
      <stop offset="0.48" stop-color="#e8c915"/>
      <stop offset="1" stop-color="#947a05"/>
    </linearGradient>
    <linearGradient id="olive" x1="31" y1="102" x2="101" y2="24" gradientUnits="userSpaceOnUse">
      <stop offset="0" stop-color="#65a30d"/>
      <stop offset="1" stop-color="#bef264"/>
    </linearGradient>
    <filter id="shadow" x="9" y="10" width="110" height="110" color-interpolation-filters="sRGB" filterUnits="userSpaceOnUse">
      <feDropShadow dx="0" dy="8" stdDeviation="8" flood-color="#332c08" flood-opacity=".22"/>
    </filter>
  </defs>
  <rect width="128" height="128" rx="30" fill="#332c08"/>
  <g filter="url(#shadow)">
    <path fill="url(#lemon)" d="M35 28h32c19.9 0 34 14.2 34 35.7C101 85.5 87 100 67 100H35V28Zm18.3 16.8v38.4h13.1c9.9 0 16.3-7.5 16.3-19.3 0-11.7-6.4-19.1-16.3-19.1H53.3Z"/>
    <path fill="#fffde7" d="M53.3 44.8h12.5c10.1 0 16.9 7.4 16.9 19.1 0 11.8-6.8 19.3-16.9 19.3H53.3V68.7h12.1c2.8 0 5.1-2.2 5.1-5s-2.3-5-5.1-5H53.3V44.8Z" opacity=".2"/>
    <path fill="none" stroke="url(#olive)" stroke-linecap="round" stroke-linejoin="round" stroke-width="8" d="M33 84c18-1 25-14 36-24 8.2-7.5 16.7-10.8 28-10"/>
    <circle cx="33" cy="84" r="6" fill="#fff9c2"/>
    <circle cx="97" cy="50" r="6" fill="#bef264"/>
  </g>
  <path fill="#fffde7" d="M47 95h10l-6 13H41l6-13Zm21 0h10l-6 13H62l6-13Z" opacity=".9"/>
</svg>
